# xmcd
#
# Track frame offsets:
#	150
#	15925
#	30005
#	51725
#	73167
#	86277
#	103797
#	122365
#	139510
#	152720
#	184185
#	203915
#	219700
#	231740
#	250035
#	270990
#	289745
#	309477
#	328905
#
# Disc length: 4671 seconds
#
# Revision: 0
# Processed by: cddbd v1.5.2PL0 Copyright (c) Steve Scherf et al.
# Submitted via: EZCDAudioConverter 4.0.9.1
#
DISCID=0d123d13
DTITLE=The Temptations - The Temptations: Anthology CD2
DYEAR=1995
DGENRE=Rock and Roll
TTITLE0=Cloud Nine
TTITLE1=I'm Gonna Make You Love Me
TTITLE2=Runaway Child, Running Wild
TTITLE3=Don't Let The Jones Get you Down
TTITLE4=I Can't Get Next To You
TTITLE5=Psychedelic Shack
TTITLE6=Ball Of Confusion
TTITLE7=Just My Imagination
TTITLE8=Superstar
TTITLE9=Papa Was A Rollin' Stone
TTITLE10=Masterpiece
TTITLE11=Hey Girl (I Like Your Style)
TTITLE12=Let Your Hair Down
TTITLE13=Shakey Ground
TTITLE14=A Song For You 
TTITLE15=Power
TTITLE16=Standing On The Top
TTITLE17=Treat Her Like A Lady
TTITLE18=Lady Soul
EXTD=
EXTT0=
EXTT1=
EXTT2=
EXTT3=
EXTT4=
EXTT5=
EXTT6=
EXTT7=
EXTT8=
EXTT9=
EXTT10=
EXTT11=
EXTT12=
EXTT13=
EXTT14=
EXTT15=
EXTT16=
EXTT17=
EXTT18=
PLAYORDER=
